<svg width="36" height="15" viewBox="0 0 36 15" fill="none" xmlns="http://www.w3.org/2000/svg">
<path d="M0.12 11V0.92H1.807V9.418H6.259V11H0.12ZM10.7838 11.21C10.0278 11.21 9.36751 11.0397 8.80284 10.699C8.23818 10.3583 7.79951 9.88933 7.48684 9.292C7.17884 8.69 7.02484 7.99933 7.02484 7.22C7.02484 6.42667 7.18351 5.73133 7.50084 5.134C7.81818 4.53667 8.25918 4.07 8.82384 3.734C9.38851 3.398 10.0418 3.23 10.7838 3.23C11.5445 3.23 12.2072 3.40033 12.7718 3.741C13.3365 4.08167 13.7752 4.553 14.0878 5.155C14.4005 5.75233 14.5568 6.44067 14.5568 7.22C14.5568 8.004 14.3982 8.697 14.0808 9.299C13.7682 9.89633 13.3295 10.3653 12.7648 10.706C12.2002 11.042 11.5398 11.21 10.7838 11.21ZM10.7838 9.628C11.4558 9.628 11.9552 9.404 12.2818 8.956C12.6085 8.508 12.7718 7.92933 12.7718 7.22C12.7718 6.48733 12.6062 5.904 12.2748 5.47C11.9435 5.03133 11.4465 4.812 10.7838 4.812C10.3312 4.812 9.95784 4.91467 9.66384 5.12C9.37451 5.32067 9.15984 5.603 9.01984 5.967C8.87984 6.32633 8.80984 6.744 8.80984 7.22C8.80984 7.95267 8.97551 8.53833 9.30684 8.977C9.64284 9.411 10.1352 9.628 10.7838 9.628ZM19.2771 14.57C18.8571 14.57 18.4535 14.5047 18.0661 14.374C17.6835 14.2433 17.3381 14.0543 17.0301 13.807C16.7221 13.5643 16.4701 13.2703 16.2741 12.925L17.8281 12.155C17.9728 12.4303 18.1758 12.6333 18.4371 12.764C18.7031 12.8993 18.9855 12.967 19.2841 12.967C19.6341 12.967 19.9468 12.904 20.2221 12.778C20.4975 12.6567 20.7098 12.4747 20.8591 12.232C21.0131 11.994 21.0855 11.6953 21.0761 11.336V9.187H21.2861V3.44H22.7631V11.364C22.7631 11.5553 22.7538 11.7373 22.7351 11.91C22.7211 12.0873 22.6955 12.26 22.6581 12.428C22.5461 12.918 22.3315 13.3193 22.0141 13.632C21.6968 13.9493 21.3025 14.185 20.8311 14.339C20.3645 14.493 19.8465 14.57 19.2771 14.57ZM19.1301 11.21C18.4348 11.21 17.8281 11.035 17.3101 10.685C16.7921 10.335 16.3908 9.859 16.1061 9.257C15.8215 8.655 15.6791 7.976 15.6791 7.22C15.6791 6.45467 15.8215 5.77333 16.1061 5.176C16.3955 4.574 16.8038 4.10033 17.3311 3.755C17.8585 3.405 18.4791 3.23 19.1931 3.23C19.9118 3.23 20.5138 3.405 20.9991 3.755C21.4891 4.10033 21.8601 4.574 22.1121 5.176C22.3641 5.778 22.4901 6.45933 22.4901 7.22C22.4901 7.97133 22.3641 8.65033 22.1121 9.257C21.8601 9.859 21.4845 10.335 20.9851 10.685C20.4858 11.035 19.8675 11.21 19.1301 11.21ZM19.3891 9.698C19.8418 9.698 20.2058 9.59533 20.4811 9.39C20.7611 9.18 20.9641 8.88833 21.0901 8.515C21.2208 8.14167 21.2861 7.71 21.2861 7.22C21.2861 6.72533 21.2208 6.29367 21.0901 5.925C20.9641 5.55167 20.7658 5.26233 20.4951 5.057C20.2245 4.847 19.8745 4.742 19.4451 4.742C18.9925 4.742 18.6191 4.854 18.3251 5.078C18.0311 5.29733 17.8141 5.596 17.6741 5.974C17.5341 6.34733 17.4641 6.76267 17.4641 7.22C17.4641 7.682 17.5318 8.102 17.6671 8.48C17.8071 8.85333 18.0195 9.14967 18.3041 9.369C18.5888 9.58833 18.9505 9.698 19.3891 9.698ZM24.8661 2.292V0.745H26.5531V2.292H24.8661ZM24.8661 11V3.44H26.5531V11H24.8661ZM33.8789 11V7.36C33.8789 7.122 33.8626 6.85833 33.8299 6.569C33.7973 6.27967 33.7203 6.002 33.5989 5.736C33.4823 5.46533 33.3049 5.24367 33.0669 5.071C32.8336 4.89833 32.5163 4.812 32.1149 4.812C31.9003 4.812 31.6879 4.847 31.4779 4.917C31.2679 4.987 31.0766 5.10833 30.9039 5.281C30.7359 5.449 30.6006 5.68233 30.4979 5.981C30.3953 6.275 30.3439 6.653 30.3439 7.115L29.3429 6.688C29.3429 6.044 29.4666 5.46067 29.7139 4.938C29.9659 4.41533 30.3346 4 30.8199 3.692C31.3053 3.37933 31.9026 3.223 32.6119 3.223C33.1719 3.223 33.6339 3.31633 33.9979 3.503C34.3619 3.68967 34.6513 3.92767 34.8659 4.217C35.0806 4.50633 35.2393 4.81433 35.3419 5.141C35.4446 5.46767 35.5099 5.778 35.5379 6.072C35.5706 6.36133 35.5869 6.597 35.5869 6.779V11H33.8789ZM28.6359 11V3.44H30.1409V5.785H30.3439V11H28.6359Z" fill="white"/>
</svg>
